<svg width="1917" height="626" viewBox="0 0 1917 626" fill="none" xmlns="http://www.w3.org/2000/svg">
<path d="M814.538 164.383C811.743 164.383 809.063 165.493 807.087 167.469C805.11 169.446 804 172.126 804 174.921V217.075C804 219.87 805.11 222.551 807.087 224.527C809.063 226.503 811.743 227.614 814.538 227.614C817.333 227.614 820.014 226.503 821.99 224.527C823.967 222.551 825.077 219.87 825.077 217.075V174.921C825.077 172.126 823.967 169.446 821.99 167.469C820.014 165.493 817.333 164.383 814.538 164.383Z" fill="#8AB4EB"/>
<path d="M850.544 122.23C847.749 122.23 845.069 123.341 843.092 125.317C841.116 127.293 840.006 129.974 840.006 132.769V259.23C840.006 262.025 841.116 264.706 843.092 266.682C845.069 268.659 847.749 269.769 850.544 269.769C853.339 269.769 856.02 268.659 857.996 266.682C859.973 264.706 861.083 262.025 861.083 259.23V132.769C861.083 129.974 859.973 127.293 857.996 125.317C856.02 123.341 853.339 122.23 850.544 122.23Z" fill="#8AB4EB"/>
<path d="M886.552 143.307C883.757 143.307 881.077 144.417 879.1 146.393C877.124 148.37 876.014 151.05 876.014 153.845V238.153C876.014 240.948 877.124 243.628 879.1 245.605C881.077 247.581 883.757 248.691 886.552 248.691C889.347 248.691 892.028 247.581 894.004 245.605C895.98 243.628 897.091 240.948 897.091 238.153V153.845C897.091 151.05 895.98 148.37 894.004 146.393C892.028 144.417 889.347 143.307 886.552 143.307Z" fill="#8AB4EB"/>
<path d="M922.558 80.0762C919.763 80.0762 917.082 81.1865 915.106 83.1628C913.13 85.1392 912.02 87.8197 912.02 90.6146V301.384C912.02 304.179 913.13 306.859 915.106 308.836C917.082 310.812 919.763 311.922 922.558 311.922C925.353 311.922 928.034 310.812 930.01 308.836C931.986 306.859 933.096 304.179 933.096 301.384V90.6146C933.096 87.8197 931.986 85.1392 930.01 83.1628C928.034 81.1865 925.353 80.0762 922.558 80.0762Z" fill="#8AB4EB"/>
<path d="M958.562 129.258C955.767 129.258 953.086 130.368 951.11 132.344C949.134 134.321 948.023 137.001 948.023 139.796V252.207C948.023 255.002 949.134 257.682 951.11 259.658C953.086 261.635 955.767 262.745 958.562 262.745C961.357 262.745 964.037 261.635 966.014 259.658C967.99 257.682 969.1 255.002 969.1 252.207V139.796C969.1 137.001 967.99 134.321 966.014 132.344C964.037 130.368 961.357 129.258 958.562 129.258Z" fill="#8AB4EB"/>
<path d="M994.572 108.182C991.777 108.182 989.096 109.292 987.12 111.268C985.143 113.245 984.033 115.925 984.033 118.72V273.284C984.033 276.079 985.143 278.76 987.12 280.736C989.096 282.712 991.777 283.823 994.572 283.823C997.367 283.823 1000.05 282.712 1002.02 280.736C1004 278.76 1005.11 276.079 1005.11 273.284V118.72C1005.11 115.925 1004 113.245 1002.02 111.268C1000.05 109.292 997.367 108.182 994.572 108.182Z" fill="#8AB4EB"/>
<path d="M1102.59 150.334C1105.39 150.334 1108.07 151.444 1110.04 153.421C1112.02 155.397 1113.13 158.077 1113.13 160.872V231.129C1113.13 233.924 1112.02 236.604 1110.04 238.581C1108.07 240.557 1105.39 241.667 1102.59 241.667C1099.8 241.667 1097.12 240.557 1095.14 238.581C1093.16 236.604 1092.05 233.924 1092.05 231.129V160.872C1092.05 158.077 1093.16 155.397 1095.14 153.421C1097.12 151.444 1099.8 150.334 1102.59 150.334Z" fill="#8AB4EB"/>
<path d="M1066.59 125.744C1069.38 125.744 1072.06 126.854 1074.04 128.831C1076.01 130.807 1077.12 133.488 1077.12 136.283V255.719C1077.12 258.513 1076.01 261.194 1074.04 263.17C1072.06 265.147 1069.38 266.257 1066.59 266.257C1063.79 266.257 1061.11 265.147 1059.13 263.17C1057.16 261.194 1056.05 258.513 1056.05 255.719V136.283C1056.05 133.488 1057.16 130.807 1059.13 128.831C1061.11 126.854 1063.79 125.744 1066.59 125.744Z" fill="#8AB4EB"/>
<path d="M1030.58 59C1033.37 59 1036.05 60.1103 1038.03 62.0866C1040 64.063 1041.11 66.7435 1041.11 69.5385V322.462C1041.11 325.257 1040 327.937 1038.03 329.913C1036.05 331.89 1033.37 333 1030.58 333C1027.78 333 1025.1 331.89 1023.12 329.913C1021.15 327.937 1020.04 325.257 1020.04 322.462V69.5385C1020.04 66.7435 1021.15 64.063 1023.12 62.0866C1025.1 60.1103 1027.78 59 1030.58 59Z" fill="#8AB4EB"/>
<path d="M8.26389 583.57V489.735H17.914V583.57H8.26389ZM45.3607 583.57V489.735H52.4517L74.7375 557.499L73.7779 528.016V489.735H82.255V583.57H75.0041L53.7313 516.34L54.3177 540.811V583.57H45.3607ZM112.741 583.57V497.573H102.664V489.735H131.614V497.573H122.338V583.57H112.741ZM151.97 583.57V489.735H178.575V497.573H161.62V531.694H177.615V539.692H161.62V575.68H178.575V583.57H151.97ZM202.236 583.57V489.735H211.886V575.733H228.894V583.57H202.236ZM249.036 583.57V489.735H258.686V583.57H249.036ZM300.901 584.53C295.57 584.53 291.554 582.273 288.852 577.759C286.151 573.245 284.8 565.799 284.8 555.42V516.713C284.8 512.625 285.049 508.875 285.547 505.463C286.044 502.051 286.951 499.083 288.266 496.56C289.581 494.036 291.411 492.081 293.757 490.695C296.139 489.309 299.213 488.616 302.981 488.616C306.819 488.616 309.841 489.309 312.044 490.695C314.284 492.081 315.954 494.036 317.056 496.56C318.193 499.083 318.922 502.069 319.242 505.517C319.562 508.929 319.722 512.679 319.722 516.766V524.284H310.232V511.061C310.232 506.37 309.77 502.833 308.845 500.452C307.921 498.035 305.931 496.826 302.874 496.826C299.711 496.826 297.507 498.266 296.263 501.145C295.055 503.988 294.45 508.947 294.45 516.02V554.993C294.45 562.742 294.966 568.287 295.996 571.628C297.027 574.933 299.213 576.586 302.554 576.586C305.753 576.586 307.886 574.915 308.952 571.574C310.054 568.233 310.605 562.671 310.605 554.887V542.837H302.821V535.107H319.722V583.57H314.177L313.004 577.119C311.902 579.501 310.356 581.331 308.366 582.611C306.375 583.89 303.887 584.53 300.901 584.53ZM345.996 583.57V489.735H372.6V497.573H355.646V531.694H371.64V539.692H355.646V575.68H372.6V583.57H345.996ZM346.369 482.271L353.78 467.609H364.603L371.96 482.271H363.803L359.218 472.034L354.633 482.271H346.369ZM396.261 583.57V489.735H403.352L425.638 557.499L424.679 528.016V489.735H433.156V583.57H425.905L404.632 516.34L405.218 540.811V583.57H396.261ZM476.81 584.69C472.261 584.69 468.689 583.553 466.094 581.278C463.535 579.003 461.74 575.68 460.709 571.308C459.678 566.9 459.163 561.516 459.163 555.153V516.819C459.163 512.767 459.394 509.035 459.856 505.623C460.354 502.175 461.224 499.19 462.468 496.666C463.748 494.107 465.561 492.134 467.907 490.748C470.288 489.326 473.38 488.616 477.184 488.616C480.916 488.616 483.901 489.309 486.141 490.695C488.38 492.081 490.068 494.018 491.205 496.506C492.343 498.994 493.089 501.944 493.445 505.357C493.836 508.733 494.031 512.448 494.031 516.5V525.83H484.434V516.02C484.434 509.693 484.008 504.912 483.155 501.678C482.302 498.443 480.294 496.826 477.13 496.826C473.825 496.826 471.603 498.461 470.466 501.731C469.364 504.966 468.813 509.711 468.813 515.966V555.26C468.813 560.343 469.009 564.466 469.399 567.629C469.826 570.757 470.608 573.032 471.745 574.453C472.918 575.875 474.607 576.586 476.81 576.586C480.009 576.586 482.071 574.933 482.995 571.628C483.955 568.322 484.434 562.866 484.434 555.26V546.143H494.085V555.153C494.085 561.551 493.605 566.954 492.645 571.361C491.685 575.733 489.961 579.056 487.473 581.331C484.985 583.57 481.431 584.69 476.81 584.69ZM519.239 583.57V489.735H528.889V583.57H519.239ZM550.418 583.57L565.026 489.735H576.009L592.057 583.57H582.887L580.008 565.017H562.2L559.588 583.57H550.418ZM563.373 557.446H578.781L570.837 506.103H570.677L563.373 557.446ZM644.125 583.57L658.733 489.735H669.716L685.764 583.57H676.594L673.715 565.017H655.907L653.295 583.57H644.125ZM657.08 557.446H672.489L664.545 506.103H664.385L657.08 557.446ZM707.24 583.57V489.735H725.26C730.236 489.735 733.915 490.588 736.296 492.294C738.678 493.965 740.224 496.542 740.935 500.025C741.646 503.508 742.001 507.934 742.001 513.301C742.001 519.201 741.397 523.91 740.188 527.429C738.98 530.948 736.705 533.187 733.364 534.147C735.141 534.431 736.581 535.195 737.683 536.439C738.82 537.648 739.691 539.603 740.295 542.304C740.935 545.006 741.379 548.666 741.628 553.287C741.877 557.872 742.001 563.701 742.001 570.775C742.001 571.485 742.001 572.303 742.001 573.227C742.001 574.151 742.019 575.111 742.054 576.106C742.09 577.101 742.143 578.079 742.214 579.039C742.285 579.963 742.374 580.816 742.481 581.598C742.623 582.38 742.783 583.037 742.961 583.57H733.364C733.186 583.215 733.044 582.611 732.938 581.758C732.831 580.869 732.724 579.678 732.618 578.185C732.547 576.657 732.493 574.738 732.458 572.427C732.422 570.117 732.404 567.345 732.404 564.11C732.404 560.876 732.404 557.108 732.404 552.807C732.404 548.933 732.262 545.983 731.978 543.957C731.729 541.895 731.036 540.474 729.899 539.692C728.761 538.91 726.895 538.43 724.3 538.252L716.89 537.826V583.57H707.24ZM716.836 530.948H724.46C726.593 530.948 728.228 530.557 729.365 529.775C730.538 528.958 731.338 527.287 731.765 524.763C732.191 522.24 732.404 518.401 732.404 513.247V512.554C732.404 508.289 732.209 505.09 731.818 502.957C731.427 500.789 730.681 499.35 729.579 498.639C728.477 497.892 726.842 497.519 724.674 497.519H716.836V530.948ZM770.461 583.57V497.573H760.384V489.735H789.335V497.573H780.058V583.57H770.461ZM809.744 583.57V489.735H819.394V583.57H809.744ZM846.841 583.57V489.735H873.445V497.626H856.437V529.242H872.485V537.239H856.437V583.57H846.841ZM896.413 583.57V489.735H906.063V583.57H896.413ZM949.825 584.69C945.275 584.69 941.703 583.553 939.108 581.278C936.549 579.003 934.754 575.68 933.723 571.308C932.693 566.9 932.177 561.516 932.177 555.153V516.819C932.177 512.767 932.408 509.035 932.87 505.623C933.368 502.175 934.239 499.19 935.483 496.666C936.762 494.107 938.575 492.134 940.921 490.748C943.302 489.326 946.395 488.616 950.198 488.616C953.93 488.616 956.916 489.309 959.155 490.695C961.394 492.081 963.082 494.018 964.22 496.506C965.357 498.994 966.104 501.944 966.459 505.357C966.85 508.733 967.045 512.448 967.045 516.5V525.83H957.449V516.02C957.449 509.693 957.022 504.912 956.169 501.678C955.316 498.443 953.308 496.826 950.144 496.826C946.839 496.826 944.617 498.461 943.48 501.731C942.378 504.966 941.827 509.711 941.827 515.966V555.26C941.827 560.343 942.023 564.466 942.414 567.629C942.84 570.757 943.622 573.032 944.76 574.453C945.933 575.875 947.621 576.586 949.825 576.586C953.024 576.586 955.085 574.933 956.009 571.628C956.969 568.322 957.449 562.866 957.449 555.26V546.143H967.099V555.153C967.099 561.551 966.619 566.954 965.659 571.361C964.7 575.733 962.976 579.056 960.488 581.331C958 583.57 954.445 584.69 949.825 584.69ZM992.253 583.57V489.735H1001.9V583.57H992.253ZM1023.43 583.57L1038.04 489.735H1049.02L1065.07 583.57H1055.9L1053.02 565.017H1035.21L1032.6 583.57H1023.43ZM1036.39 557.446H1051.8L1043.85 506.103H1043.69L1036.39 557.446ZM1086.55 583.57V489.735H1096.2V575.733H1113.2V583.57H1086.55ZM1169.8 583.57V489.735H1187.5C1191.27 489.735 1194.29 490.375 1196.57 491.655C1198.84 492.934 1200.55 494.765 1201.69 497.146C1202.86 499.527 1203.62 502.389 1203.98 505.73C1204.37 509.035 1204.57 512.714 1204.57 516.766V517.992C1204.57 524.39 1204.09 529.722 1203.13 533.987C1202.2 538.252 1200.5 541.451 1198.01 543.584C1195.52 545.716 1191.95 546.783 1187.29 546.783H1179.45V583.57H1169.8ZM1179.45 538.679H1186.92C1189.12 538.679 1190.79 538.039 1191.93 536.759C1193.07 535.48 1193.85 533.347 1194.28 530.362C1194.7 527.34 1194.92 523.235 1194.92 518.046V516.233C1194.95 509.835 1194.49 505.126 1193.53 502.104C1192.57 499.048 1190.47 497.519 1187.24 497.519H1179.45V538.679ZM1218.63 583.57L1233.24 489.735H1244.22L1260.27 583.57H1251.1L1248.22 565.017H1230.41L1227.8 583.57H1218.63ZM1231.59 557.446H1246.99L1239.05 506.103H1238.89L1231.59 557.446ZM1281.74 583.57V489.735H1299.77C1304.74 489.735 1308.42 490.588 1310.8 492.294C1313.18 493.965 1314.73 496.542 1315.44 500.025C1316.15 503.508 1316.51 507.934 1316.51 513.301C1316.51 519.201 1315.9 523.91 1314.69 527.429C1313.49 530.948 1311.21 533.187 1307.87 534.147C1309.65 534.431 1311.09 535.195 1312.19 536.439C1313.33 537.648 1314.2 539.603 1314.8 542.304C1315.44 545.006 1315.88 548.666 1316.13 553.287C1316.38 557.872 1316.51 563.701 1316.51 570.775C1316.51 571.485 1316.51 572.303 1316.51 573.227C1316.51 574.151 1316.52 575.111 1316.56 576.106C1316.6 577.101 1316.65 578.079 1316.72 579.039C1316.79 579.963 1316.88 580.816 1316.99 581.598C1317.13 582.38 1317.29 583.037 1317.47 583.57H1307.87C1307.69 583.215 1307.55 582.611 1307.44 581.758C1307.34 580.869 1307.23 579.678 1307.12 578.185C1307.05 576.657 1307 574.738 1306.96 572.427C1306.93 570.117 1306.91 567.345 1306.91 564.11C1306.91 560.876 1306.91 557.108 1306.91 552.807C1306.91 548.933 1306.77 545.983 1306.48 543.957C1306.23 541.895 1305.54 540.474 1304.4 539.692C1303.27 538.91 1301.4 538.43 1298.81 538.252L1291.4 537.826V583.57H1281.74ZM1291.34 530.948H1298.97C1301.1 530.948 1302.73 530.557 1303.87 529.775C1305.04 528.958 1305.84 527.287 1306.27 524.763C1306.7 522.24 1306.91 518.401 1306.91 513.247V512.554C1306.91 508.289 1306.71 505.09 1306.32 502.957C1305.93 500.789 1305.19 499.35 1304.08 498.639C1302.98 497.892 1301.35 497.519 1299.18 497.519H1291.34V530.948ZM1335.9 583.57L1350.51 489.735H1361.49L1377.54 583.57H1368.37L1365.49 565.017H1347.69L1345.07 583.57H1335.9ZM1348.86 557.446H1364.27L1356.32 506.103H1356.16L1348.86 557.446ZM1435.53 583.57V489.735H1453.23C1457 489.735 1460.02 490.375 1462.29 491.655C1464.57 492.934 1466.27 494.765 1467.41 497.146C1468.58 499.527 1469.35 502.389 1469.7 505.73C1470.09 509.035 1470.29 512.714 1470.29 516.766V517.992C1470.29 524.39 1469.81 529.722 1468.85 533.987C1467.93 538.252 1466.22 541.451 1463.73 543.584C1461.24 545.716 1457.67 546.783 1453.02 546.783H1445.18V583.57H1435.53ZM1445.18 538.679H1452.64C1454.85 538.679 1456.52 538.039 1457.65 536.759C1458.79 535.48 1459.57 533.347 1460 530.362C1460.43 527.34 1460.64 523.235 1460.64 518.046V516.233C1460.68 509.835 1460.21 505.126 1459.25 502.104C1458.29 499.048 1456.2 497.519 1452.96 497.519H1445.18V538.679ZM1493.04 583.57V489.735H1519.65V497.573H1502.69V531.694H1518.69V539.692H1502.69V575.68H1519.65V583.57H1493.04ZM1543.31 583.57V489.735H1559.52C1564.49 489.735 1568.32 490.802 1570.98 492.934C1573.68 495.031 1575.53 498.035 1576.53 501.944C1577.56 505.819 1578.07 510.439 1578.07 515.806L1578.13 556.539C1578.13 562.937 1577.5 568.127 1576.26 572.108C1575.05 576.088 1573.06 579.003 1570.29 580.851C1567.52 582.664 1563.8 583.57 1559.14 583.57H1543.31ZM1552.91 575.573H1558.99C1561.12 575.573 1562.88 575.093 1564.26 574.133C1565.65 573.174 1566.7 571.379 1567.41 568.749C1568.12 566.083 1568.48 562.209 1568.48 557.126V515.273C1568.48 508.911 1567.73 504.361 1566.24 501.625C1564.74 498.888 1562.4 497.519 1559.2 497.519H1552.91V575.573ZM1604.19 583.57V489.735H1613.84V583.57H1604.19ZM1635.36 583.57L1649.97 489.735H1660.96L1677 583.57H1667.83L1664.95 565.017H1647.15L1644.53 583.57H1635.36ZM1648.32 557.446H1663.73L1655.78 506.103H1655.62L1648.32 557.446ZM1700.88 583.57V497.573H1690.8V489.735H1719.75V497.573H1710.48V583.57H1700.88ZM1740.11 583.57V489.735H1758.13C1763.1 489.735 1766.78 490.588 1769.17 492.294C1771.55 493.965 1773.09 496.542 1773.8 500.025C1774.51 503.508 1774.87 507.934 1774.87 513.301C1774.87 519.201 1774.27 523.91 1773.06 527.429C1771.85 530.948 1769.57 533.187 1766.23 534.147C1768.01 534.431 1769.45 535.195 1770.55 536.439C1771.69 537.648 1772.56 539.603 1773.16 542.304C1773.8 545.006 1774.25 548.666 1774.5 553.287C1774.75 557.872 1774.87 563.701 1774.87 570.775C1774.87 571.485 1774.87 572.303 1774.87 573.227C1774.87 574.151 1774.89 575.111 1774.92 576.106C1774.96 577.101 1775.01 578.079 1775.08 579.039C1775.15 579.963 1775.24 580.816 1775.35 581.598C1775.49 582.38 1775.65 583.037 1775.83 583.57H1766.23C1766.05 583.215 1765.91 582.611 1765.81 581.758C1765.7 580.869 1765.59 579.678 1765.49 578.185C1765.42 576.657 1765.36 574.738 1765.33 572.427C1765.29 570.117 1765.27 567.345 1765.27 564.11C1765.27 560.876 1765.27 557.108 1765.27 552.807C1765.27 548.933 1765.13 545.983 1764.85 543.957C1764.6 541.895 1763.9 540.474 1762.77 539.692C1761.63 538.91 1759.76 538.43 1757.17 538.252L1749.76 537.826V583.57H1740.11ZM1749.7 530.948H1757.33C1759.46 530.948 1761.1 530.557 1762.23 529.775C1763.41 528.958 1764.21 527.287 1764.63 524.763C1765.06 522.24 1765.27 518.401 1765.27 513.247V512.554C1765.27 508.289 1765.08 505.09 1764.69 502.957C1764.3 500.789 1763.55 499.35 1762.45 498.639C1761.35 497.892 1759.71 497.519 1757.54 497.519H1749.7V530.948ZM1794.27 583.57L1808.87 489.735H1819.86L1835.91 583.57H1826.74L1823.86 565.017H1806.05L1803.44 583.57H1794.27ZM1807.22 557.446H1822.63L1814.69 506.103H1814.53L1807.22 557.446ZM1871.56 584.637C1867.8 584.637 1864.76 583.926 1862.45 582.504C1860.17 581.047 1858.45 579.039 1857.27 576.479C1856.1 573.885 1855.3 570.863 1854.87 567.416C1854.48 563.968 1854.29 560.2 1854.29 556.113V546.729H1863.67V556.273C1863.67 563.488 1864.19 568.678 1865.22 571.841C1866.25 574.969 1868.47 576.533 1871.88 576.533C1874.23 576.533 1875.93 575.964 1877 574.827C1878.07 573.689 1878.74 571.894 1879.03 569.442C1879.31 566.954 1879.45 563.719 1879.45 559.738C1879.45 555.26 1878.78 551.528 1877.43 548.542C1876.08 545.521 1873.94 542.624 1871.03 539.852L1865.16 534.147C1863.42 532.441 1861.66 530.539 1859.89 528.442C1858.11 526.345 1856.62 523.928 1855.41 521.191C1854.24 518.419 1853.65 515.256 1853.65 511.701C1853.65 507.08 1854.09 503.046 1854.98 499.599C1855.91 496.115 1857.63 493.414 1860.15 491.495C1862.68 489.54 1866.32 488.562 1871.08 488.562C1874.92 488.562 1877.94 489.255 1880.15 490.642C1882.39 492.028 1884.02 493.983 1885.05 496.506C1886.12 498.994 1886.79 501.944 1887.08 505.357C1887.4 508.769 1887.56 512.501 1887.56 516.553V521.991H1878.55V515.86C1878.55 511.204 1878.35 507.489 1877.96 504.717C1877.57 501.909 1876.84 499.883 1875.77 498.639C1874.74 497.359 1873.2 496.72 1871.14 496.72C1869.25 496.72 1867.71 497.146 1866.5 497.999C1865.29 498.852 1864.42 500.274 1863.89 502.264C1863.35 504.219 1863.09 506.921 1863.09 510.368C1863.09 513.105 1863.41 515.327 1864.05 517.033C1864.68 518.739 1865.64 520.32 1866.92 521.778C1868.24 523.2 1869.84 524.888 1871.72 526.843L1877.59 532.867C1881.04 536.386 1883.81 540.296 1885.9 544.597C1888 548.862 1889.05 553.98 1889.05 559.952C1889.05 564.928 1888.59 569.282 1887.66 573.014C1886.74 576.71 1885.02 579.572 1882.49 581.598C1880 583.624 1876.36 584.637 1871.56 584.637Z" fill="#8AB4EB"/>
<path d="M184.459 17.1565C190.335 20.3621 190.335 26.7732 184.993 29.9787C182.322 31.5815 179.116 33.1843 175.91 33.7186C170.034 34.7871 164.157 35.3213 158.28 35.8556C129.43 36.9241 100.046 38.5269 71.1955 40.1297C68.5242 40.1297 65.8529 40.6639 61.0446 41.7325C62.6474 69.514 61.5789 96.227 63.1816 122.94C71.1955 124.008 77.6067 122.94 84.552 122.406C92.0317 121.871 100.046 121.337 107.525 121.337C115.005 121.337 121.95 122.94 128.361 127.214C134.238 130.954 134.238 136.831 128.361 140.036C124.087 142.173 119.279 143.776 115.005 144.845L71.7298 149.653C69.0585 150.187 66.9215 150.721 63.7159 150.721C63.7159 155.53 63.1816 159.27 63.1816 163.009C63.7159 227.121 64.2502 291.766 65.3187 356.411V357.48C65.3187 371.905 62.6474 375.645 48.7566 378.85C39.1399 380.987 29.5233 380.453 20.4409 377.782C12.427 375.111 8.15287 370.302 7.61862 361.754C4.41306 322.219 -0.929543 282.684 0.138977 243.148C0.673237 193.462 1.74176 144.31 2.81028 94.6242C3.34454 79.1307 4.94732 63.6371 5.48158 48.1436C6.01584 42.801 5.48158 37.4584 4.94732 32.65C3.8788 24.1019 10.2899 13.4167 18.3038 10.7454C27.3862 7.53982 37.5372 7.00556 46.6196 10.2111C53.565 12.8824 60.5103 13.4167 67.99 13.4167C95.2372 12.3482 122.484 11.2796 149.197 10.7454C158.28 10.2111 166.828 10.2111 175.376 12.8824C178.582 13.9509 181.787 15.5537 184.459 17.1565ZM22.5779 53.4862C23.1122 50.8149 24.1807 47.6093 19.3723 45.4723C18.8381 46.5408 17.2353 48.1436 16.701 49.7463C15.6325 56.1575 14.564 63.1028 14.564 69.514C12.9612 95.1584 11.8927 120.269 10.2899 145.379C7.61862 187.585 6.5501 230.326 8.68714 273.067C9.75566 288.561 10.8242 303.52 11.8927 319.013H14.0297V310.465V234.6C14.0297 216.435 14.564 197.736 15.0983 179.572C16.701 149.119 18.3038 118.666 20.4409 88.2131C20.9751 76.4594 22.0436 64.7056 22.5779 53.4862ZM172.171 20.8963C176.979 21.4306 178.048 17.6908 175.376 17.1565C157.211 13.9509 136.91 17.1565 118.745 17.6908C135.307 17.1565 155.074 19.2935 172.171 20.8963ZM353.819 148.584C351.148 188.12 347.942 227.655 346.339 267.19C345.271 297.643 346.339 328.096 346.339 359.083C346.339 360.151 346.874 361.754 346.874 363.357C346.874 375.111 343.668 378.85 332.449 382.056C322.298 384.193 312.681 384.193 302.53 382.056C291.311 379.385 286.502 375.111 285.434 363.357C283.297 344.124 282.762 324.89 281.16 305.657C280.625 300.314 280.625 294.972 280.091 288.026C257.118 285.889 235.748 287.492 213.843 291.766C210.637 298.177 211.172 304.588 210.103 310.999C209.569 316.342 209.569 321.685 209.035 327.027C208.5 333.973 204.761 337.712 198.349 339.849C188.198 343.055 178.048 343.055 167.897 339.849C161.485 337.712 157.211 332.904 156.677 325.424C156.143 321.15 156.143 316.876 156.143 312.068C154.006 239.943 168.431 171.023 195.678 104.241C203.692 83.939 213.843 64.7056 226.131 46.5408C230.939 39.5954 236.282 33.1843 241.624 26.7732C264.063 0.0601897 303.064 1.66296 323.366 11.8139C332.983 16.6222 339.394 24.6361 343.668 34.2528C348.476 44.938 350.613 56.1575 352.216 67.3769C355.956 94.0899 355.422 121.337 353.819 148.584ZM196.747 148.05C208.5 108.515 226.131 71.651 250.707 37.9926C252.844 35.8556 254.447 32.65 257.118 27.8417C260.324 20.3621 251.241 27.8417 250.173 28.9102C246.967 32.1158 244.296 35.3213 241.624 39.0612C219.72 69.514 204.226 102.638 192.473 138.433C186.061 157.133 181.787 176.366 176.979 195.599C173.773 208.956 171.102 222.312 169.499 236.203C167.362 249.56 167.362 262.382 168.431 275.738C170.034 273.601 170.568 270.93 170.568 268.259C173.239 252.231 174.308 236.737 178.048 221.244C183.39 196.668 189.801 172.092 196.747 148.05ZM276.351 258.642C278.488 246.888 281.16 83.939 279.557 68.4454C276.351 71.651 275.283 72.7195 274.214 74.3223C271.009 80.1992 267.803 85.5418 265.132 91.4186C240.556 143.242 224.528 198.271 216.514 254.902C215.98 257.039 217.048 258.642 217.048 261.313C237.885 260.245 257.118 259.176 276.351 258.642ZM336.723 117.063C337.791 130.42 346.339 134.159 346.874 121.871C350.079 40.6639 329.243 26.7732 329.243 26.7732C336.188 39.0612 336.188 103.707 336.723 117.063ZM578.208 339.315C582.482 340.384 586.222 343.055 589.428 345.726C593.702 349.466 593.167 355.343 588.893 358.549C585.688 360.686 582.482 362.823 578.742 363.891C574.468 365.494 569.126 366.562 564.317 367.097C532.796 369.768 501.275 372.974 469.753 375.645C453.191 376.713 436.095 375.645 419.533 371.371C414.725 369.768 409.916 368.7 405.642 366.562C394.423 361.22 386.943 353.206 385.875 340.384C384.806 333.973 384.272 327.561 384.272 321.15C383.203 254.902 384.272 188.654 389.08 122.94C391.217 94.0899 393.888 65.2399 396.56 36.3899C396.56 33.1843 397.094 29.9787 397.628 26.7732C398.697 20.3621 402.437 15.5537 408.314 13.4167C424.341 7.00557 440.369 7.00557 456.397 12.8824C463.877 15.5537 467.616 20.8963 468.151 28.9102C468.685 33.7186 469.219 39.0612 469.219 43.8695C468.151 107.446 467.616 171.558 466.548 235.135C466.014 265.053 464.945 294.437 464.411 323.822C464.411 329.164 463.876 334.507 467.082 341.452C487.384 339.849 507.152 338.247 526.385 336.644C536.536 336.11 546.153 335.041 555.769 335.575C563.249 335.575 571.263 337.178 578.208 339.315ZM396.026 298.177C396.56 302.451 403.505 300.848 402.437 296.574C401.368 288.026 400.834 279.478 401.902 270.93C401.902 266.122 394.957 266.122 394.957 270.93C393.889 280.012 394.423 289.095 396.026 298.177ZM401.902 246.354C398.697 177.434 401.902 109.049 410.451 40.6639C410.985 36.3899 404.039 36.3899 403.505 40.6639C394.957 109.049 392.286 177.434 394.957 246.354C394.957 250.628 401.902 250.628 401.902 246.354ZM512.494 348.932C529.591 347.329 546.153 345.192 564.317 343.055C547.221 340.384 532.262 341.452 512.494 348.932ZM707.499 148.05C712.307 183.311 713.376 219.107 711.239 254.368C710.17 275.204 708.033 296.04 705.896 316.342C704.828 329.699 703.225 342.521 701.622 355.877C701.622 359.083 701.088 362.288 701.088 365.494C700.554 375.111 695.211 380.453 686.663 383.125C673.841 386.864 660.484 386.864 647.662 383.659C636.442 379.919 632.703 375.645 632.703 363.357V266.656C632.703 260.779 632.168 254.902 632.168 247.957C624.689 245.82 617.743 247.957 610.798 248.491C603.318 249.025 595.839 249.56 587.825 250.094C580.879 250.628 573.934 251.697 565.92 253.299C565.386 259.176 564.852 264.519 563.783 269.861L560.578 293.903C558.975 304.054 552.564 309.397 543.481 311.534C533.865 313.671 524.782 313.671 515.7 311.534C503.946 308.862 499.138 303.52 498.603 291.232C496.466 262.916 496.466 234.066 499.138 205.75C501.809 172.092 506.617 138.434 514.631 105.844C518.905 87.1446 525.316 68.9797 534.933 52.4177C559.509 10.2111 603.853 0.594439 642.854 11.8139C656.744 16.088 667.43 25.1704 675.978 37.4584C684.526 50.8149 690.403 65.2399 694.677 80.7334C701.088 102.638 704.828 125.611 707.499 148.05ZM510.357 250.628C505.549 250.628 505.549 257.573 510.357 257.573C514.631 257.573 514.631 250.628 510.357 250.628ZM538.139 305.123C540.276 305.123 540.276 301.383 538.139 301.917C529.056 302.451 521.042 301.917 512.494 299.246C510.357 298.711 509.289 301.917 511.426 302.986C519.974 305.123 529.056 305.657 538.139 305.123ZM544.016 79.6649C550.961 64.7056 560.043 50.2806 571.797 38.5269C575.003 35.8556 570.194 31.0473 566.989 33.7186C542.413 58.2945 529.59 93.0214 521.042 126.146C511.426 163.009 507.686 201.476 506.617 239.943C506.617 244.217 513.563 244.217 513.563 239.943V234.6C514.097 230.86 514.631 227.655 514.631 224.449C515.165 210.559 516.234 196.668 517.302 182.777C519.44 166.215 522.111 150.187 525.851 133.625C526.919 129.351 528.522 125.077 529.59 120.269C531.727 113.858 533.865 107.446 536.536 101.035C537.604 97.8297 538.673 94.6242 539.207 91.4186C540.81 87.6788 542.413 83.939 544.016 79.6649ZM631.634 208.956C631.634 202.01 632.168 196.134 631.634 190.257C631.1 178.503 630.566 166.215 628.963 154.461C626.292 132.557 623.086 110.118 619.346 88.2131C617.743 77.5279 615.072 66.8427 608.127 55.089C604.387 60.9658 601.181 64.7056 599.579 69.514C595.304 82.3362 589.428 94.6242 587.291 107.981C580.879 139.502 576.071 171.558 570.729 203.079C570.194 206.284 569.126 209.49 573.4 213.23C581.948 212.696 591.565 212.161 601.181 211.093C611.332 210.024 621.483 212.161 631.634 208.956ZM682.923 370.837C685.06 369.768 682.923 367.097 681.32 368.165C671.169 372.974 657.813 369.234 647.128 368.165C644.991 368.165 644.991 371.371 647.128 371.905C658.881 372.974 672.238 376.179 682.923 370.837ZM700.019 301.383C700.554 296.04 701.088 290.698 701.088 285.355C701.622 281.081 694.677 281.081 694.677 285.355C694.143 290.698 693.608 296.04 693.608 301.383C693.074 305.657 700.019 305.657 700.019 301.383ZM702.156 268.259C703.759 236.737 703.759 204.682 702.156 172.626C701.088 147.516 698.951 122.94 688.8 99.4325C687.197 95.6927 681.32 98.8983 682.923 103.172C694.143 129.351 695.211 158.201 695.745 185.983C696.814 213.764 696.28 241.011 695.211 268.259C694.677 273.067 701.622 272.533 702.156 268.259Z" fill="#8AB4EB"/>
<path d="M1448.64 120.336C1457.73 173.278 1428.85 223.547 1378.58 242.264C1359.33 249.216 1339.55 251.889 1320.29 255.633C1313.88 257.237 1306.92 258.307 1298.9 259.911C1298.37 272.211 1297.3 283.441 1297.3 294.671C1296.76 320.34 1296.76 346.009 1296.76 371.678V377.56C1296.23 381.838 1294.09 384.512 1290.88 386.651C1284.46 390.395 1278.05 390.93 1271.09 391.464C1263.61 391.464 1256.12 390.93 1249.17 388.256C1242.75 385.582 1239.01 381.304 1238.47 374.352C1237.94 363.656 1236.87 353.496 1236.33 342.8C1232.06 290.393 1232.06 237.451 1234.2 184.508C1235.27 150.283 1236.87 116.058 1238.47 81.8325V66.859C1233.13 66.3242 1227.78 65.2547 1222.97 64.7199C1217.62 64.1851 1212.8 62.5808 1208.53 59.3722C1204.78 56.1635 1204.25 51.8854 1205.85 47.6072C1208.53 41.19 1213.34 36.9118 1219.22 33.1684C1232.06 24.0774 1246.5 19.2644 1261.47 16.5906C1299.97 9.10379 1337.94 12.3124 1374.84 27.8207C1416.55 44.9334 1440.62 75.9501 1448.64 120.336ZM1258.26 76.4848V69.5328C1257.73 68.998 1256.66 67.3937 1256.12 67.9285C1255.05 67.9285 1253.45 68.4633 1252.91 69.5328C1251.84 73.2762 1251.31 77.5544 1250.77 81.8325C1249.17 94.1322 1248.1 106.432 1247.03 118.732C1243.29 160.444 1243.29 202.691 1243.82 244.403C1243.82 262.585 1244.36 280.232 1244.89 298.414H1247.56C1248.1 293.601 1248.63 289.323 1248.63 284.51C1249.17 272.745 1249.17 260.446 1249.7 248.681C1250.24 210.712 1251.31 172.743 1252.38 134.775C1252.38 127.823 1253.45 120.336 1254.52 113.384C1255.59 101.084 1257.19 88.7845 1258.26 76.4848ZM1367.89 174.883C1377.51 153.492 1380.19 131.031 1374.31 108.036C1365.75 72.7414 1344.36 50.2811 1308.53 42.7943C1306.39 42.2595 1304.79 42.7943 1302.11 42.7943C1305.32 102.154 1301.04 160.978 1299.97 221.408C1307.99 222.477 1313.34 219.268 1319.22 217.664C1342.75 211.247 1358.26 196.808 1367.89 174.883ZM1433.66 157.235C1434.2 155.631 1433.66 150.283 1432.6 149.214H1430.99C1430.99 149.748 1430.46 150.818 1430.46 151.887C1430.99 153.492 1429.39 156.166 1432.06 157.235C1432.6 157.77 1433.13 157.235 1433.66 157.235ZM1427.78 137.449C1428.32 140.657 1435.8 144.935 1435.8 140.122C1432.6 107.501 1422.43 71.6719 1394.09 51.8854C1389.28 48.6768 1388.74 54.5592 1392.49 57.2331C1404.25 65.7894 1412.27 78.0891 1418.16 91.4584C1419.23 95.2018 1420.3 98.9451 1421.9 102.689C1425.11 114.453 1426.71 126.218 1427.78 137.449ZM1549.18 29.425C1548.64 32.0989 1548.11 33.7032 1548.11 35.8423C1548.11 104.293 1548.11 172.209 1548.64 240.659C1548.64 241.729 1549.71 243.333 1550.24 245.472C1558.8 244.937 1567.36 243.333 1575.91 242.264C1584.47 241.194 1593.56 240.659 1602.65 240.659C1606.93 240.659 1611.74 242.798 1615.49 244.937C1620.83 247.611 1620.83 253.494 1615.49 256.702C1610.14 259.376 1604.26 260.98 1598.37 262.05C1587.14 264.724 1575.38 266.328 1564.15 268.467C1559.34 269.537 1555.06 270.606 1550.24 272.211C1549.71 291.462 1550.78 310.714 1553.99 329.431C1554.52 331.57 1555.59 333.709 1556.13 335.314C1558.27 341.731 1562.54 345.474 1569.5 346.009C1576.98 346.009 1584.47 346.544 1591.96 346.009C1605.86 344.939 1619.23 343.87 1632.6 342.8C1639.02 342.266 1644.9 342.8 1650.78 343.335C1653.46 343.335 1656.13 344.405 1658.27 344.939C1664.15 346.544 1667.89 350.822 1667.36 354.03C1666.82 358.309 1663.08 360.448 1659.34 362.052C1655.06 363.122 1650.25 364.726 1645.97 365.261C1625.11 366.865 1604.79 369.004 1583.94 370.608C1569.5 371.678 1554.52 370.608 1540.08 367.935C1533.67 366.865 1527.25 364.726 1521.37 362.587C1510.67 357.774 1502.65 349.752 1498.91 339.057C1496.23 331.035 1493.56 322.479 1492.49 313.923C1490.35 287.719 1488.21 261.515 1486.61 235.312C1483.93 195.204 1485 154.561 1486.07 113.919C1486.61 92.5279 1487.68 70.6023 1488.75 48.6768C1488.75 43.3291 1489.28 37.9814 1489.28 32.0989C1485 29.4251 1481.26 27.286 1477.52 24.6121C1474.31 21.9383 1473.77 16.5906 1478.05 14.4515C1481.79 11.7776 1486.61 9.10379 1491.42 8.03425C1502.12 5.3604 1513.35 3.22132 1524.04 2.15178C1557.73 -0.522073 1591.96 -1.5916 1625.65 4.29087C1631.53 5.36041 1637.41 7.49948 1642.23 10.1733C1648.64 13.382 1648.11 20.334 1641.69 23.0078C1636.88 25.6817 1630.46 27.8207 1624.58 28.3555C1616.56 29.425 1608.53 28.3555 1600.51 28.3555H1558.27C1555.06 28.3555 1552.38 28.8903 1549.18 29.425ZM1499.44 40.6552C1494.63 50.8158 1494.09 58.8374 1492.49 126.218C1491.95 154.561 1491.95 182.904 1492.49 211.247C1493.56 239.59 1495.16 267.932 1500.51 295.741C1501.05 287.719 1501.05 279.697 1501.05 271.676C1500.51 233.707 1498.37 195.739 1498.91 158.305C1499.44 122.475 1501.58 86.6454 1503.18 50.8159C1503.18 48.142 1503.18 45.4681 1502.65 43.3291C1502.65 42.2595 1500.51 41.7248 1499.44 40.6552ZM1908.01 91.4584C1927.26 156.7 1915.49 216.595 1873.78 270.606C1848.65 303.227 1817.09 329.431 1781.8 350.287C1775.38 354.565 1768.43 358.843 1762.01 363.122C1747.04 371.678 1731.53 373.817 1714.95 369.004C1711.75 368.469 1708.54 366.865 1705.33 365.261C1698.38 360.982 1693.56 355.1 1693.56 346.544C1693.03 343.87 1693.03 341.196 1692.49 339.057C1689.82 277.558 1689.82 216.06 1694.1 154.561C1696.77 114.988 1700.52 75.4153 1704.26 33.7032C1704.26 33.1684 1703.72 32.6337 1703.19 31.5641C1696.24 23.5426 1696.77 21.9383 1705.33 16.0558C1719.77 6.42994 1735.28 3.7561 1751.85 6.42995C1758.27 7.49949 1764.69 6.96472 1771.1 6.96472C1791.43 6.96472 1811.21 9.10379 1831 14.9863C1869.5 26.7512 1896.24 51.3506 1908.01 91.4584ZM1724.04 81.8325C1725.11 72.7414 1725.65 63.1156 1726.18 54.0245C1726.18 51.8854 1724.58 37.9814 1720.84 46.5377C1719.23 50.8159 1719.77 52.9549 1719.23 56.1635C1717.63 68.998 1716.56 81.8325 1715.49 94.1322C1713.88 111.245 1713.35 127.823 1711.75 144.401C1708 192.53 1706.4 240.659 1708 288.789C1708 290.928 1706.93 293.601 1710.68 295.741C1711.21 290.393 1711.75 285.58 1711.75 280.767C1713.35 248.681 1714.42 216.06 1716.02 183.439C1717.09 163.118 1718.16 143.331 1719.77 123.01C1720.84 109.106 1722.44 95.7365 1724.04 81.8325ZM1850.25 156.7C1852.92 126.218 1846.51 97.8756 1833.14 71.1371C1824.05 52.9549 1809.07 41.19 1789.29 36.3771C1783.94 35.3075 1778.59 33.7032 1773.24 36.3771C1768.43 125.684 1765.76 214.99 1762.55 303.762C1766.83 305.366 1768.97 302.158 1771.1 300.553C1786.08 288.254 1799.98 273.815 1812.28 258.841C1825.65 242.264 1834.74 224.081 1841.16 204.295C1845.97 188.787 1848.65 172.743 1850.25 156.7ZM1901.05 167.396C1905.87 126.753 1896.78 74.8805 1870.04 52.4202C1867.9 50.2811 1866.29 49.2115 1866.83 49.7463C1869.5 54.0245 1871.64 58.3026 1873.78 62.5808C1873.25 62.046 1873.25 62.046 1872.71 62.046L1874.85 64.1851C1889.82 94.667 1894.64 126.753 1892.5 161.513C1891.96 174.883 1901.05 169 1901.05 167.396Z" fill="#8AB4EB"/>
</svg>
