<svg width="310" height="274" viewBox="0 0 310 274" fill="none" xmlns="http://www.w3.org/2000/svg">
<path d="M10.5385 105.383C7.74349 105.383 5.06293 106.493 3.08658 108.469C1.11024 110.446 0 113.126 0 115.921V158.075C0 160.87 1.11024 163.551 3.08658 165.527C5.06293 167.503 7.74349 168.614 10.5385 168.614C13.3334 168.614 16.014 167.503 17.9903 165.527C19.9667 163.551 21.0769 160.87 21.0769 158.075V115.921C21.0769 113.126 19.9667 110.446 17.9903 108.469C16.014 106.493 13.3334 105.383 10.5385 105.383Z" fill="#8AB4EB"/>
<path d="M46.5443 63.2305C43.7493 63.2305 41.0688 64.3408 39.0924 66.3171C37.1161 68.2934 36.0059 70.974 36.0059 73.7689V200.23C36.0059 203.025 37.1161 205.706 39.0924 207.682C41.0688 209.659 43.7493 210.769 46.5443 210.769C49.3393 210.769 52.0199 209.659 53.9962 207.682C55.9725 205.706 57.0828 203.025 57.0828 200.23V73.7689C57.0828 70.974 55.9725 68.2934 53.9962 66.3171C52.0199 64.3408 49.3393 63.2305 46.5443 63.2305Z" fill="#8AB4EB"/>
<path d="M82.5521 84.3066C79.7572 84.3066 77.0766 85.4169 75.1003 87.3933C73.1239 89.3696 72.0137 92.0501 72.0137 94.8451V179.153C72.0137 181.948 73.1239 184.628 75.1003 186.605C77.0766 188.581 79.7572 189.691 82.5521 189.691C85.3471 189.691 88.0277 188.581 90.004 186.605C91.9804 184.628 93.0906 181.948 93.0906 179.153V94.8451C93.0906 92.0501 91.9804 89.3696 90.004 87.3933C88.0277 85.4169 85.3471 84.3066 82.5521 84.3066Z" fill="#8AB4EB"/>
<path d="M118.558 21.0762C115.763 21.0762 113.082 22.1865 111.106 24.1628C109.13 26.1392 108.02 28.8197 108.02 31.6146V242.384C108.02 245.179 109.13 247.859 111.106 249.836C113.082 251.812 115.763 252.922 118.558 252.922C121.353 252.922 124.034 251.812 126.01 249.836C127.986 247.859 129.096 245.179 129.096 242.384V31.6146C129.096 28.8197 127.986 26.1392 126.01 24.1628C124.034 22.1865 121.353 21.0762 118.558 21.0762Z" fill="#8AB4EB"/>
<path d="M154.562 70.2578C151.767 70.2578 149.086 71.3681 147.11 73.3444C145.134 75.3208 144.023 78.0013 144.023 80.7963V193.207C144.023 196.002 145.134 198.682 147.11 200.658C149.086 202.635 151.767 203.745 154.562 203.745C157.357 203.745 160.037 202.635 162.014 200.658C163.99 198.682 165.1 196.002 165.1 193.207V80.7963C165.1 78.0013 163.99 75.3208 162.014 73.3444C160.037 71.3681 157.357 70.2578 154.562 70.2578Z" fill="#8AB4EB"/>
<path d="M190.572 49.1816C187.777 49.1816 185.096 50.2919 183.12 52.2683C181.143 54.2446 180.033 56.9251 180.033 59.7201V214.284C180.033 217.079 181.143 219.76 183.12 221.736C185.096 223.712 187.777 224.823 190.572 224.823C193.367 224.823 196.047 223.712 198.024 221.736C200 219.76 201.11 217.079 201.11 214.284V59.7201C201.11 56.9251 200 54.2446 198.024 52.2683C196.047 50.2919 193.367 49.1816 190.572 49.1816Z" fill="#8AB4EB"/>
<path d="M298.591 91.334C301.386 91.334 304.067 92.4443 306.043 94.4206C308.019 96.397 309.13 99.0775 309.13 101.872V172.129C309.13 174.924 308.019 177.604 306.043 179.581C304.067 181.557 301.386 182.667 298.591 182.667C295.796 182.667 293.116 181.557 291.139 179.581C289.163 177.604 288.053 174.924 288.053 172.129V101.872C288.053 99.0775 289.163 96.397 291.139 94.4206C293.116 92.4443 295.796 91.334 298.591 91.334Z" fill="#8AB4EB"/>
<path d="M262.585 66.7441C265.38 66.7441 268.061 67.8544 270.037 69.8308C272.014 71.8071 273.124 74.4876 273.124 77.2826V196.719C273.124 199.513 272.014 202.194 270.037 204.17C268.061 206.147 265.38 207.257 262.585 207.257C259.79 207.257 257.11 206.147 255.133 204.17C253.157 202.194 252.047 199.513 252.047 196.719V77.2826C252.047 74.4876 253.157 71.8071 255.133 69.8308C257.11 67.8544 259.79 66.7441 262.585 66.7441Z" fill="#8AB4EB"/>
<path d="M226.576 0C229.371 0 232.051 1.11029 234.027 3.08664C236.004 5.06298 237.114 7.74349 237.114 10.5385V263.462C237.114 266.257 236.004 268.937 234.027 270.913C232.051 272.89 229.371 274 226.576 274C223.781 274 221.1 272.89 219.124 270.913C217.147 268.937 216.037 266.257 216.037 263.462V10.5385C216.037 7.74349 217.147 5.06298 219.124 3.08664C221.1 1.11029 223.781 0 226.576 0Z" fill="#8AB4EB"/>
</svg>
