<svg width="512" height="512" viewBox="0 0 512 512" fill="none" xmlns="http://www.w3.org/2000/svg">
<path d="M17.4545 196.92C12.8253 196.92 8.38554 198.995 5.11219 202.688C1.83885 206.381 0 211.39 0 216.612V295.381C0 300.604 1.83885 305.613 5.11219 309.306C8.38554 312.999 12.8253 315.074 17.4545 315.074C22.0837 315.074 26.5234 312.999 29.7967 309.306C33.0701 305.613 34.9089 300.604 34.9089 295.381V216.612C34.9089 211.39 33.0701 206.381 29.7967 202.688C26.5234 198.995 22.0837 196.92 17.4545 196.92Z" fill="#8AB4EB"/>
<path d="M77.0892 118.152C72.46 118.152 68.0203 120.227 64.747 123.92C61.4736 127.613 59.6348 132.622 59.6348 137.845V374.152C59.6348 379.375 61.4736 384.384 64.747 388.077C68.0203 391.77 72.46 393.845 77.0892 393.845C81.7184 393.845 86.1582 391.77 89.4315 388.077C92.7049 384.384 94.5437 379.375 94.5437 374.152V137.845C94.5437 132.622 92.7049 127.613 89.4315 123.92C86.1582 120.227 81.7184 118.152 77.0892 118.152Z" fill="#8AB4EB"/>
<path d="M136.728 157.537C132.099 157.537 127.659 159.612 124.386 163.305C121.112 166.998 119.273 172.007 119.273 177.229V334.768C119.273 339.991 121.112 344.999 124.386 348.692C127.659 352.385 132.099 354.46 136.728 354.46C141.357 354.46 145.797 352.385 149.07 348.692C152.344 344.999 154.182 339.991 154.182 334.768V177.229C154.182 172.007 152.344 166.998 149.07 163.305C145.797 159.612 141.357 157.537 136.728 157.537Z" fill="#8AB4EB"/>
<path d="M196.363 39.3828C191.733 39.3828 187.294 41.4575 184.02 45.1505C180.747 48.8436 178.908 53.8524 178.908 59.0751V452.921C178.908 458.144 180.747 463.153 184.02 466.846C187.294 470.539 191.733 472.614 196.363 472.614C200.992 472.614 205.432 470.539 208.705 466.846C211.978 463.153 213.817 458.144 213.817 452.921V59.0751C213.817 53.8524 211.978 48.8436 208.705 45.1505C205.432 41.4575 200.992 39.3828 196.363 39.3828Z" fill="#8AB4EB"/>
<path d="M255.995 131.285C251.366 131.285 246.927 133.36 243.653 137.053C240.38 140.746 238.541 145.755 238.541 150.977V361.029C238.541 366.251 240.38 371.26 243.653 374.953C246.927 378.646 251.366 380.721 255.995 380.721C260.625 380.721 265.064 378.646 268.338 374.953C271.611 371.26 273.45 366.251 273.45 361.029V150.977C273.45 145.755 271.611 140.746 268.338 137.053C265.064 133.36 260.625 131.285 255.995 131.285Z" fill="#8AB4EB"/>
<path d="M315.636 91.9023C311.007 91.9023 306.567 93.977 303.294 97.6701C300.02 101.363 298.182 106.372 298.182 111.595V400.415C298.182 405.638 300.02 410.647 303.294 414.34C306.567 418.033 311.007 420.107 315.636 420.107C320.265 420.107 324.705 418.033 327.978 414.34C331.252 410.647 333.091 405.638 333.091 400.415V111.595C333.091 106.372 331.252 101.363 327.978 97.6701C324.705 93.977 320.265 91.9023 315.636 91.9023Z" fill="#8AB4EB"/>
<path d="M494.546 170.668C499.175 170.668 503.615 172.743 506.889 176.436C510.162 180.129 512.001 185.138 512.001 190.36V321.642C512.001 326.865 510.162 331.874 506.889 335.567C503.615 339.26 499.175 341.335 494.546 341.335C489.917 341.335 485.477 339.26 482.204 335.567C478.931 331.874 477.092 326.865 477.092 321.642V190.36C477.092 185.138 478.931 180.129 482.204 176.436C485.477 172.743 489.917 170.668 494.546 170.668Z" fill="#8AB4EB"/>
<path d="M434.91 124.719C439.539 124.719 443.978 126.793 447.252 130.486C450.525 134.18 452.364 139.188 452.364 144.411V367.591C452.364 372.813 450.525 377.822 447.252 381.515C443.978 385.208 439.539 387.283 434.91 387.283C430.28 387.283 425.841 385.208 422.567 381.515C419.294 377.822 417.455 372.813 417.455 367.591V144.411C417.455 139.188 419.294 134.18 422.567 130.486C425.841 126.793 430.28 124.719 434.91 124.719Z" fill="#8AB4EB"/>
<path d="M375.269 0C379.898 0 384.338 2.0747 387.611 5.76773C390.885 9.46075 392.723 14.4696 392.723 19.6923V492.308C392.723 497.53 390.885 502.539 387.611 506.232C384.338 509.925 379.898 512 375.269 512C370.64 512 366.2 509.925 362.927 506.232C359.653 502.539 357.814 497.53 357.814 492.308V19.6923C357.814 14.4696 359.653 9.46075 362.927 5.76773C366.2 2.0747 370.64 0 375.269 0Z" fill="#8AB4EB"/>
</svg>
